Coordinates
version=1
nRows=9
nColumns=24
inDegrees=yes

Units are S.I. units (second, meters, Newtons, ...)
Angles are in degrees.

endheader
time	pelvis_tilt	pelvis_list	pelvis_rotation	pelvis_tx	pelvis_ty	pelvis_tz	hip_flexion_r	hip_adduction_r	hip_rotation_r	knee_angle_r	ankle_angle_r	subtalar_angle_r	mtp_angle_r	hip_flexion_l	hip_adduction_l	hip_rotation_l	knee_angle_l	ankle_angle_l	subtalar_angle_l	mtp_angle_l	lumbar_extension	lumbar_bending	lumbar_rotation
      1.76650000	     -0.17465878	      7.86468385	     -1.98646432	      1.43678818	      1.02109952	      0.24045361	     16.44642545	     -6.88435810	      2.56127151	    -68.12663170	      5.64581333	    -15.77019492	      1.36465396	      4.82030427	     13.21799817	      1.46999077	     -9.21789605	      0.89152483	    -16.60636156	      7.83649871	      0.00934842	     -8.97083339	      4.82263922
      1.77066667	     -0.19980872	      7.77658651	     -1.68017798	      1.44155156	      1.02152321	      0.23968121	     16.91041266	     -6.75357910	      2.43699108	    -67.72307718	      5.79677137	    -15.89938844	      1.32637285	      4.36283020	     13.17199816	      1.78128564	     -8.94422608	      0.98626629	    -16.47863191	      7.81422697	      0.00143570	     -8.87110673	      4.72943264
      1.77483333	     -0.21279656	      7.68275921	     -1.40298186	      1.44627941	      1.02194027	      0.23897036	     17.36313561	     -6.59978207	      2.36316758	    -67.28829826	      5.85178090	    -16.11153406	      1.22185596	      3.87396595	     13.12035589	      2.15700785	     -8.62688141	      1.05613338	    -16.50753204	      7.75111626	     -0.04636657	     -8.76362034	      4.35945528
      1.77900000	     -0.24057538	      7.59395452	     -1.09633978	      1.45101255	      1.02230949	      0.23823387	     17.81542737	     -6.46995479	      2.25589486	    -66.82595927	      5.95755866	    -16.25523938	      1.12402892	      3.41171674	     13.06695532	      2.52956768	     -8.32878770	      1.10201512	    -16.48110438	      7.69190431	     -0.07326203	     -8.67598235	      4.09465545
      1.78316667	     -0.25718720	      7.52396933	     -0.80601785	      1.45571270	      1.02263682	      0.23752299	     18.25978376	     -6.36688528	      2.16197923	    -66.34996699	      6.07493886	    -16.40491150	      0.96475615	      2.93688334	     13.02909229	      2.88245267	     -8.01726188	      1.10909889	    -16.49743572	      7.59733820	     -0.09589858	     -8.61269102	      3.78050903
      1.78733333	     -0.29686834	      7.43326377	     -0.52511078	      1.46043485	      1.02291964	      0.23682408	     18.71646586	     -6.24248889	      2.07581771	    -65.83176185	      6.16110683	    -16.53231626	      0.85772199	      2.50098243	     12.96270611	      3.21070007	     -7.73810466	      1.20083673	    -16.45738738	      7.53781620	     -0.09664920	     -8.50259957	      3.59740396
      1.79150000	     -0.32208616	      7.35076206	     -0.23441184	      1.46512625	      1.02319435	      0.23613741	     19.14804967	     -6.13279463	      1.98691378	    -65.28945502	      6.25713140	    -16.64675903	      0.75398855	      2.04866973	     12.89970035	      3.54453858	     -7.45167755	      1.25949195	    -16.42310241	      7.48353930	     -0.12179373	     -8.41879148	      3.34867564
      1.79566667	     -0.33424099	      7.27993024	      0.05893832	      1.46980763	      1.02344180	      0.23545264	     19.56013578	     -6.04532358	      1.89396806	    -64.72970256	      6.36634051	    -16.74189311	      0.64607594	      1.58873944	     12.84550412	      3.88991228	     -7.17302032	      1.31079497	    -16.39901078	      7.42756965	     -0.15814978	     -8.34911625	      3.09880703
      1.79983333	     -0.37326202	      7.20204418	      0.34155150	      1.47450697	      1.02362979	      0.23479827	     19.99238234	     -5.94848567	      1.81679488	    -64.13811730	      6.45388308	    -16.84173257	      0.53746229	      1.16155365	     12.77842818	      4.21750246	     -6.90244815	      1.36267975	    -16.38268155	      7.37457720	     -0.15799321	     -8.27015944	      2.86261812
